<svg id="visual" viewBox="0 0 900 600" width="900" height="600"
  xmlns="http://www.w3.org/2000/svg"
  xmlns:xlink="http://www.w3.org/1999/xlink" version="1.1">
  <rect x="0" y="0" width="900" height="600" fill="#16a9c2"></rect>
  <path d="M0 371L10 371.7C20 372.3 40 373.7 60 337.7C80 301.7 100 228.3 120 223.2C140 218 160 281 180 290.8C200 300.7 220 257.3 240 279.7C260 302 280 390 300 380.3C320 370.7 340 263.3 360 250.3C380 237.3 400 318.7 420 339.8C440 361 460 322 480 309.8C500 297.7 520 312.3 540 341.5C560 370.7 580 414.3 600 438.7C620 463 640 468 660 479.2C680 490.3 700 507.7 720 448.3C740 389 760 253 780 225.3C800 197.7 820 278.3 840 326.5C860 374.7 880 390.3 890 398.2L900 406L900 601L890 601C880 601 860 601 840 601C820 601 800 601 780 601C760 601 740 601 720 601C700 601 680 601 660 601C640 601 620 601 600 601C580 601 560 601 540 601C520 601 500 601 480 601C460 601 440 601 420 601C400 601 380 601 360 601C340 601 320 601 300 601C280 601 260 601 240 601C220 601 200 601 180 601C160 601 140 601 120 601C100 601 80 601 60 601C40 601 20 601 10 601L0 601Z" fill="#FFFFFF" stroke-linecap="round" stroke-linejoin="miter"></path>
</svg>