<svg id="visual" viewBox="0 0 900 600" width="900" height="600" xmlns="http://www.w3.org/2000/svg" xmlns:xlink="http://www.w3.org/1999/xlink" version="1.1"><rect x="0" y="0" width="900" height="600" fill="#87d7ff"></rect><path d="M0 319L11.5 329.2C23 339.3 46 359.7 69 359.8C92 360 115 340 138.2 306.3C161.3 272.7 184.7 225.3 207.8 226.3C231 227.3 254 276.7 277 308.5C300 340.3 323 354.7 346 330C369 305.3 392 241.7 415.2 224.5C438.3 207.3 461.7 236.7 484.8 224.8C508 213 531 160 554 197.8C577 235.7 600 364.3 623 374.8C646 385.3 669 277.7 692.2 232.5C715.3 187.3 738.7 204.7 761.8 232.8C785 261 808 300 831 325.2C854 350.3 877 361.7 888.5 367.3L900 373L900 601L888.5 601C877 601 854 601 831 601C808 601 785 601 761.8 601C738.7 601 715.3 601 692.2 601C669 601 646 601 623 601C600 601 577 601 554 601C531 601 508 601 484.8 601C461.7 601 438.3 601 415.2 601C392 601 369 601 346 601C323 601 300 601 277 601C254 601 231 601 207.8 601C184.7 601 161.3 601 138.2 601C115 601 92 601 69 601C46 601 23 601 11.5 601L0 601Z" fill="#FFFFFF" stroke-linecap="round" stroke-linejoin="miter"></path></svg>